<?xml version="1.0" encoding="UTF-8"?>
<svg id="Layer_1" data-name="Layer 1" xmlns="http://www.w3.org/2000/svg" viewBox="0 0 30.82 30.82">
  <path d="M30.82,15.41c0,8.52-6.9,15.41-15.41,15.41S0,23.93,0,15.41c0-2.45.57-4.76,1.59-6.82.06.43.16.85.32,1.28.37.98,1.04,1.92,2.09,2.75,4.06,2.66,8.03.21,9.08-3.15.7-2.21.14-4.81-2.44-6.61l-.17-.1c-.92-.48-1.84-.71-2.71-.73C10.02.73,12.62,0,15.41,0s5.44.74,7.71,2.07c-2.96.23-5.86,2.6-5.68,6.46.02.22.06.44.11.66-.01.01,0,.01,0,.02.68,2.89,3.98,4.94,6.9,4.51,2.24-.27,3.93-2.14,4.51-4.34h0c.09-.33.14-.67.18-1,1.09,2.11,1.7,4.5,1.7,7.04Z" style="fill: #abd636; stroke-width: 0px;"/>
  <g>
    <path d="M28.95,9.37v.1c-.56,3.94-4.65,8.36-8.48,5.49-1.64-1.34-2.27-3.46-2.83-5.37-.03-.12-.07-.26-.09-.38.68,2.89,3.98,4.94,6.9,4.51,2.24-.27,3.93-2.14,4.51-4.34Z" style="fill: #3a6cd8; stroke-width: 0px;"/>
    <path d="M13.09,9.53v.08c-1.57,7.46-8.95,9.07-10.97,1.03-.07-.21-.16-.5-.21-.77.37.98,1.04,1.92,2.09,2.75,4.06,2.66,8.03.21,9.08-3.15.01.01.01.03.01.06Z" style="fill: #3a6cd8; stroke-width: 0px;"/>
    <path d="M29.12,8.37c-.03.33-.09.67-.18.99h0c-.58,2.21-2.27,4.09-4.51,4.35-2.92.43-6.22-1.62-6.9-4.51,0-.01-.01-.01,0-.02-.06-.21-.09-.43-.11-.66-.18-3.86,2.72-6.23,5.68-6.46,2.61-.21,5.29,1.22,5.98,4.72l.02.19c.06.47.06.93,0,1.4Z" style="fill: #db3a3a; stroke-width: 0px;"/>
    <path d="M13.08,9.47c-1.05,3.36-5.02,5.82-9.08,3.15-1.04-.83-1.72-1.78-2.09-2.75-.17-.42-.27-.84-.32-1.28-.4-3.4,2.53-6.7,6.17-6.56.87.02,1.79.26,2.71.73l.17.1c2.59,1.8,3.14,4.4,2.44,6.61Z" style="fill: #db3a3a; stroke-width: 0px;"/>
  </g>
  <ellipse cx="7.26" cy="7.61" rx=".7" ry="5.11" transform="translate(-1.42 1.67) rotate(-11.96)" style="fill: #222428; stroke-width: 0px;"/>
  <ellipse cx="23.63" cy="7.61" rx="5.11" ry=".8" transform="translate(10.06 28.4) rotate(-74.69)" style="fill: #222428; stroke-width: 0px;"/>
  <path d="M27.91,18.82l-4.36.4c-5.29.48-10.99.48-16.28,0l-4.36-.4c-.15-.01-.12-.08.04-.08h24.91c.16,0,.2.06.04.08Z" style="fill: #222428; stroke-width: 0px;"/>
</svg>